<?xml version="1.0" encoding="UTF-8"?>
<svg version="1.1" xmlns="http://www.w3.org/2000/svg" width="353" height="150">
<path d="M0 0 C12.97274168 10.67946672 22.7305003 28.15742245 24.46484375 44.890625 C25.91373094 65.55451618 20.87950304 85.28001543 7.12109375 101.1171875 C-5.81235084 114.6217671 -22.73203841 123.73005791 -41.6328125 124.56640625 C-62.56873371 124.91766088 -80.84450435 120.15978271 -96.28125 105.45239258 C-108.423245 93.38356731 -108.423245 93.38356731 -109.37109375 86.23046875 C-106.11160525 87.62033722 -104.416207 89.14262291 -102.24609375 91.91796875 C-95.548839 99.78368071 -86.90063586 104.52453571 -77.37109375 108.23046875 C-76.58992188 108.55144531 -75.80875 108.87242187 -75.00390625 109.203125 C-59.76866418 114.43567619 -40.84928538 112.26894767 -26.36328125 105.91015625 C-12.95438285 99.07497963 -3.0424798 89.6182217 2.31640625 75.41796875 C5.77626339 66.6665654 11.9805635 60.72098734 18.62890625 54.23046875 C15.31114682 50.25238537 11.97067001 46.52978695 8.12890625 43.04296875 C3.8654463 38.85780273 1.63524517 34.59126446 -0.86328125 29.21875 C-6.84759667 17.35864301 -17.79961834 8.42788699 -30.37109375 4.23046875 C-46.23025174 -0.40141232 -61.2069752 1.6361726 -75.62109375 9.48046875 C-81.84186446 13.30863534 -87.57074344 17.46020605 -90.78125 24.18359375 C-92.39586107 27.54198477 -93.55503265 29.76141044 -96.37109375 32.23046875 C-102.25075775 33.61514702 -108.42872279 32.85300285 -114.37109375 32.23046875 C-112.68738014 19.12428898 -102.66174057 7.15434142 -92.72265625 -1.08203125 C-63.53696086 -22.02591897 -28.82756732 -21.51381878 0 0 Z " fill="#EF5014" transform="translate(322.37109375,20.76953125)"/>
<path d="M0 0 C39.11234568 -3.12962963 39.11234568 -3.12962963 48.796875 4.0078125 C53.22399331 8.15495495 56.89325578 12.79285664 60 18 C58.4918429 22.05089741 56.97498872 24.33507946 53.8125 27.3125 C50.47752343 30.45126725 50.47752343 30.45126725 47.57131958 33.97392273 C43.37365588 39.57612501 43.37365588 39.57612501 39.7151947 40.70503235 C37.07917351 40.92299425 34.55235727 40.9018736 31.91015625 40.78125 C30.96563095 40.76993042 30.02110565 40.75861084 29.04795837 40.74694824 C26.05068359 40.70239778 23.05831163 40.60208343 20.0625 40.5 C18.02285588 40.45984506 15.98313626 40.42334782 13.94335938 40.390625 C8.96036962 40.30273292 3.98101395 40.16483977 -1 40 C0.04607638 34.0350818 1.1484801 28.12625091 2.625 22.25 C4.36986309 14.7275035 4.91082244 9.88304749 1 3 C0.67 2.01 0.34 1.02 0 0 Z " fill="#034287" transform="translate(277,55)"/>
<path d="M0 0 C3.0625 2 3.0625 2 5 4 C5.66 3.01 6.32 2.02 7 1 C8.87939453 0.65942383 8.87939453 0.65942383 11.1328125 0.70703125 C11.93847656 0.71669922 12.74414062 0.72636719 13.57421875 0.73632812 C14.83685547 0.7740332 14.83685547 0.7740332 16.125 0.8125 C16.97449219 0.82603516 17.82398438 0.83957031 18.69921875 0.85351562 C20.79974837 0.88891781 22.89995293 0.94272599 25 1 C23.5803227 9.49306185 21.69513254 17.83112447 19.625 26.1875 C19.33367187 27.40630859 19.04234375 28.62511719 18.7421875 29.88085938 C14.62425273 46.52417906 14.62425273 46.52417906 8.5 51.4375 C7.9328125 51.91058594 7.365625 52.38367188 6.78125 52.87109375 C2.51791581 55.57307528 -2.41974039 55.21616934 -7.3125 55.25 C-8.04662109 55.270625 -8.78074219 55.29125 -9.53710938 55.3125 C-15.86283407 55.3574031 -20.65383989 54.16568626 -25.4375 49.75 C-27 47 -27 47 -27 40 C-21.72 40 -16.44 40 -11 40 C-10.34 41.32 -9.68 42.64 -9 44 C-6.525 43.505 -6.525 43.505 -4 43 C-3.34 40.69 -2.68 38.38 -2 36 C-2.56976563 36.32226562 -3.13953125 36.64453125 -3.7265625 36.9765625 C-7.45548639 38.65521896 -10.99065967 38.54989216 -15 38 C-19.07923219 36.11146658 -20.62942012 34.64233846 -22.875 30.75 C-25.3402709 22.53243032 -24.03356657 15.51964073 -20 8 C-14.30379895 1.47859478 -8.66505935 -1.16849312 0 0 Z M-2.625 11.0625 C-6.19993089 16.09990261 -6.2043535 21.07374844 -6 27 C-4.16299211 27.77242269 -4.16299211 27.77242269 -2 28 C1.30126665 25.8414795 2.09249353 22.69983409 3 19 C3.15041492 16.30708781 3.09314515 13.70120925 3 11 C0.0960989 9.85768068 0.0960989 9.85768068 -2.625 11.0625 Z " fill="#044286" transform="translate(177,55)"/>
<path d="M0 0 C3.7150045 3.03265674 3.7150045 3.03265674 5 6 C5.59735512 13.61438745 3.96109464 20.23489638 2 27.5625 C1.57074219 29.21862305 1.57074219 29.21862305 1.1328125 30.90820312 C0.43156543 33.60800433 -0.28287363 36.30437322 -1 39 C-6.94 39 -12.88 39 -19 39 C-17.87612027 30.00896213 -17.87612027 30.00896213 -17.02734375 26.1328125 C-16.85009766 25.31039062 -16.67285156 24.48796875 -16.49023438 23.640625 C-16.30783203 22.81046875 -16.12542969 21.9803125 -15.9375 21.125 C-15.56981015 19.44049702 -15.20383773 17.75561796 -14.83984375 16.0703125 C-14.59802368 14.96840576 -14.59802368 14.96840576 -14.35131836 13.84423828 C-13.93762332 11.98545533 -13.93762332 11.98545533 -14 10 C-15.32 10.33 -16.64 10.66 -18 11 C-18.32613281 12.18335937 -18.65226562 13.36671875 -18.98828125 14.5859375 C-21.24383727 22.75013528 -23.51805154 30.90101029 -26 39 C-31.94 39 -37.88 39 -44 39 C-42.56532277 30.7454078 -40.83542819 22.59720587 -38.9375 14.4375 C-38.66873047 13.26380859 -38.39996094 12.09011719 -38.12304688 10.88085938 C-37.86458984 9.76388672 -37.60613281 8.64691406 -37.33984375 7.49609375 C-37.10644287 6.48732178 -36.87304199 5.4785498 -36.63256836 4.43920898 C-36 2 -36 2 -35 0 C-29.06 0 -23.12 0 -17 0 C-16.67 0.66 -16.34 1.32 -16 2 C-15.030625 1.484375 -14.06125 0.96875 -13.0625 0.4375 C-8.58566014 -1.4513087 -4.61786738 -1.52778042 0 0 Z " fill="#044285" transform="translate(73,56)"/>
<path d="M0 0 C2.87606739 2.11920755 3.81969167 3.35681057 4.78515625 6.80078125 C5.5254865 12.7778593 3.49639902 18.68621575 2.0625 24.4375 C1.77181641 25.64599609 1.48113281 26.85449219 1.18164062 28.09960938 C0.46566712 31.06913883 -0.26565762 34.03495961 -1 37 C-6.61 37 -12.22 37 -18 37 C-18.33 36.34 -18.66 35.68 -19 35 C-19.598125 35.495 -20.19625 35.99 -20.8125 36.5 C-25.50299495 38.70729174 -29.89988833 38.70451993 -35 38 C-38.61691275 35.90219061 -39.68291409 34.95125774 -41 31 C-41.34253849 25.69065334 -41.54241898 22.25090277 -38 18 C-32.56353087 12.9927258 -26.10684555 12.87110607 -19 12 C-16.99841043 11.67634848 -14.99784547 11.34601239 -13 11 C-13.33 9.68 -13.66 8.36 -14 7 C-15.65 7 -17.3 7 -19 7 C-19.33 8.32 -19.66 9.64 -20 11 C-25.28 11 -30.56 11 -36 11 C-34.95486527 4.72919162 -34.77135011 3.67791571 -30 0 C-21.21284116 -4.66409705 -8.57116652 -5.21723179 0 0 Z M-25 23 C-25.33425735 25.62625139 -25.33425735 25.62625139 -25 28 C-23.27523089 28.95502158 -23.27523089 28.95502158 -21 29 C-17.77272377 26.37314725 -15.47246642 24.25219775 -15 20 C-19.3216814 19.7053399 -22.00198322 19.6560582 -25 23 Z " fill="#054284" transform="translate(273,58)"/>
<path d="M0 0 C3.76588065 3.04475457 3.76588065 3.04475457 5 6 C6.13554217 16.72891566 6.13554217 16.72891566 4 21 C-4.58 21 -13.16 21 -22 21 C-22 23.31 -22 25.62 -22 28 C-19.12635209 28.41746608 -19.12635209 28.41746608 -16 28 C-15.608125 27.175 -15.21625 26.35 -14.8125 25.5 C-14.214375 24.675 -13.61625 23.85 -13 23 C-10.05906948 22.62140441 -7.72355042 22.52224386 -4.8125 22.6875 C-4.06291016 22.71005859 -3.31332031 22.73261719 -2.54101562 22.75585938 C-0.6931553 22.81470843 1.15367667 22.90439062 3 23 C2.51839956 27.05920371 1.98704167 29.67435524 -0.75 32.75 C-1.23984375 33.32234375 -1.7296875 33.8946875 -2.234375 34.484375 C-6.92955311 38.51474913 -12.05795736 38.33649813 -17.9375 38.3125 C-18.72318359 38.32861328 -19.50886719 38.34472656 -20.31835938 38.36132812 C-25.29598828 38.3654935 -28.68056041 37.72668721 -33 35 C-36.82492389 31.06882822 -38.95091497 27.24506601 -39.03515625 21.67578125 C-38.52274804 13.51474313 -36.17148573 7.74948271 -30.1875 2.125 C-21.96418662 -4.49891665 -9.11272172 -5.57921738 0 0 Z M-17.8125 7.25 C-19.28075071 9.0612603 -19.28075071 9.0612603 -19 12 C-16.03 12 -13.06 12 -10 12 C-10.33 10.35 -10.66 8.7 -11 7 C-14.56498182 5.82433802 -14.56498182 5.82433802 -17.8125 7.25 Z " fill="#044286" transform="translate(147,58)"/>
<path d="M0 0 C-0.66 2.97 -1.32 5.94 -2 9 C0.475 9.495 0.475 9.495 3 10 C2.67 12.31 2.34 14.62 2 17 C-0.31 17 -2.62 17 -5 17 C-5.71457113 23.32905858 -6.37802877 29.66118686 -7 36 C-5.02 36.33 -3.04 36.66 -1 37 C-1.28187936 38.79323253 -1.5758281 40.58457126 -1.875 42.375 C-2.03742188 43.37273437 -2.19984375 44.37046875 -2.3671875 45.3984375 C-3 48 -3 48 -5 50 C-7.48681895 50.22660954 -9.82637349 50.32434998 -12.3125 50.3125 C-13.62863281 50.32925781 -14.94476563 50.34601563 -16.30078125 50.36328125 C-20.22761847 49.97764676 -22.06747495 49.62271366 -25 47 C-27.8305493 40.95115491 -26.6212446 35.97654798 -25.1875 29.75 C-24.99607422 28.8528125 -24.80464844 27.955625 -24.60742188 27.03125 C-23.86910102 23.61811275 -23.10510208 20.31530623 -22 17 C-23.65 17 -25.3 17 -27 17 C-26.67 14.69 -26.34 12.38 -26 10 C-24.02 10 -22.04 10 -20 10 C-19.34 7.36 -18.68 4.72 -18 2 C-15.75256955 1.46818825 -13.50192898 0.94992874 -11.25 0.4375 C-9.37054688 0.00244141 -9.37054688 0.00244141 -7.453125 -0.44140625 C-4 -1 -4 -1 0 0 Z " fill="#034287" transform="translate(107,46)"/>
<path d="M0 0 C1.58206057 0.00667536 3.16410534 0.0186375 4.74609375 0.03515625 C5.55240234 0.03966797 6.35871094 0.04417969 7.18945312 0.04882812 C9.18753131 0.06065107 11.18557158 0.07858711 13.18359375 0.09765625 C13.51359375 1.08765625 13.84359375 2.07765625 14.18359375 3.09765625 C14.86421875 2.60265625 15.54484375 2.10765625 16.24609375 1.59765625 C19.77824384 -0.20599486 22.26996366 -0.13255728 26.18359375 0.09765625 C25.70373344 5.66656142 24.88444194 10.76833193 23.18359375 16.09765625 C22.5803125 16.11183594 21.97703125 16.12601563 21.35546875 16.140625 C20.55625 16.18832031 19.75703125 16.23601562 18.93359375 16.28515625 C17.75023437 16.33736328 17.75023437 16.33736328 16.54296875 16.390625 C13.05357984 17.43628625 12.10420015 19.024686 10.18359375 22.09765625 C9.05853502 24.98598757 8.23200178 27.91727163 7.43359375 30.91015625 C6.69109375 33.61203125 5.94859375 36.31390625 5.18359375 39.09765625 C-0.75640625 39.09765625 -6.69640625 39.09765625 -12.81640625 39.09765625 C-11.45602222 30.44245928 -9.74491335 21.94096767 -7.75390625 13.41015625 C-7.48513672 12.23259766 -7.21636719 11.05503906 -6.93945312 9.84179688 C-6.68099609 8.72611328 -6.42253906 7.61042969 -6.15625 6.4609375 C-5.92284912 5.45329346 -5.68944824 4.44564941 -5.44897461 3.4074707 C-4.40688353 -0.3977102 -4.27848753 0.10948023 0 0 Z " fill="#064286" transform="translate(210.81640625,55.90234375)"/>
<path d="M0 0 C5.94 0 11.88 0 18 0 C16.56532277 8.2545922 14.83542819 16.40279413 12.9375 24.5625 C12.66873047 25.73619141 12.39996094 26.90988281 12.12304688 28.11914062 C11.86458984 29.23611328 11.60613281 30.35308594 11.33984375 31.50390625 C11.10644287 32.51267822 10.87304199 33.5214502 10.63256836 34.56079102 C10 37 10 37 9 39 C3.06 39 -2.88 39 -9 39 C-6.53593445 25.85831708 -3.31030688 12.95197739 0 0 Z " fill="#044285" transform="translate(15,56)"/>
<path d="M0 0 C3.2594885 1.38986847 4.95488675 2.91215416 7.125 5.6875 C13.81747467 13.54759791 22.47023199 18.30755428 32 22 C33.17175781 22.4640625 33.17175781 22.4640625 34.3671875 22.9375 C44.12805291 26.18072685 54.8141004 25.75603443 65 26 C65 26.33 65 26.66 65 27 C63.85402344 27.06058594 62.70804687 27.12117188 61.52734375 27.18359375 C59.99738703 27.26806989 58.46743959 27.35271427 56.9375 27.4375 C56.18533203 27.47681641 55.43316406 27.51613281 54.65820312 27.55664062 C50.05301259 27.81580719 45.55633276 28.2799421 41 29 C41 29.66 41 30.32 41 31 C43.31 31.66 45.62 32.32 48 33 C48 33.99 48 34.98 48 36 C48.99 36.495 48.99 36.495 50 37 C32.40326965 35.98480402 17.41859769 24.39439449 6.0625 11.75 C0 4.55793042 0 4.55793042 0 0 Z " fill="#E15623" transform="translate(213,107)"/>
<path d="M0 0 C0.33 0.66 0.66 1.32 1 2 C4.34252724 2.07427838 6.8035914 2.06546953 10 1 C13.1875 1.9375 13.1875 1.9375 16 3 C15.67 3.66 15.34 4.32 15 5 C14.34 5 13.68 5 13 5 C13 5.66 13 6.32 13 7 C13.66 7 14.32 7 15 7 C15 7.99 15 8.98 15 10 C8.20694623 11.54115537 1.43913357 12.31099927 -5.5 12.75 C-6.68408447 12.83495728 -6.68408447 12.83495728 -7.89208984 12.92163086 C-13.64057911 13.23961393 -13.64057911 13.23961393 -17 11 C-17.66 10.01 -18.32 9.02 -19 8 C-22.06556598 7.26656572 -22.06556598 7.26656572 -25 7 C-24.67 6.01 -24.34 5.02 -24 4 C-18.65413223 1.90058249 -13.75012332 1.74828346 -8.0625 1.875 C-7.28326172 1.88402344 -6.50402344 1.89304688 -5.70117188 1.90234375 C-3.80064553 1.92566309 -1.90027992 1.96152414 0 2 C0 1.34 0 0.68 0 0 Z " fill="#F24E10" transform="translate(278,132)"/>
<path d="M0 0 C0.66 2.97 1.32 5.94 2 9 C1.34 9 0.68 9 0 9 C-0.103125 9.886875 -0.20625 10.77375 -0.3125 11.6875 C-1.03832933 15.18467769 -1.72204891 17.25074869 -4 20 C-8.81102894 21.48912801 -13.99661676 21.10006766 -19 21 C-20.3125 19.0625 -20.3125 19.0625 -21 16 C-18.81304541 9.76107372 -15.56183317 6.28653778 -10 3 C-9.67 2.01 -9.34 1.02 -9 0 C-5.32431536 -0.91892116 -3.83619425 -0.95904856 0 0 Z " fill="#F24F10" transform="translate(230,31)"/>
<path d="M0 0 C5.94 0 11.88 0 18 0 C17.01 4.29 16.02 8.58 15 13 C9.06 13 3.12 13 -3 13 C-1.125 2.25 -1.125 2.25 0 0 Z " fill="#054287" transform="translate(19,40)"/>
<path d="M0 0 C3.2594885 1.38986847 4.95488675 2.91215416 7.125 5.6875 C12.50266612 12.04818035 19.42590643 16.61158972 27 20 C23.71023192 21.09658936 22.28696233 20.79953138 19 20 C20.32 21.65 21.64 23.3 23 25 C17.48511433 25 13.77793047 19.69193812 10 16 C0 5.53617811 0 5.53617811 0 0 Z " fill="#D65729" transform="translate(213,107)"/>
<path d="M0 0 C1.63507051 0.22855824 3.25979444 0.53323187 4.875 0.875 C6.20144531 1.14957031 6.20144531 1.14957031 7.5546875 1.4296875 C10 2 10 2 13 3 C13.33 3.66 13.66 4.32 14 5 C16.01669827 6.13350534 16.01669827 6.13350534 18 7 C18 8.65 18 10.3 18 12 C11.85838443 12.50135637 8.89714909 11.48450993 4 8 C2.1875 5.375 2.1875 5.375 1 3 C0.34 2.34 -0.32 1.68 -1 1 C-0.67 0.67 -0.34 0.34 0 0 Z " fill="#F04F12" transform="translate(232,126)"/>
<path d="M0 0 C-0.47986031 5.56890517 -1.29915181 10.67067568 -3 16 C-3.60328125 16.03738281 -4.2065625 16.07476562 -4.828125 16.11328125 C-10.99367772 16.56253341 -10.99367772 16.56253341 -16 20 C-14.6015209 16.5912072 -13.14993067 15.12606165 -10 13.25 C-9.29875 12.82203125 -8.5975 12.3940625 -7.875 11.953125 C-6 11 -6 11 -4 11 C-4 9.68 -4 8.36 -4 7 C-4.66 7 -5.32 7 -6 7 C-6 6.34 -6 5.68 -6 5 C-7.98 5 -9.96 5 -12 5 C-12 4.34 -12 3.68 -12 3 C-8.02806853 -0.12940055 -4.95769796 -0.29162929 0 0 Z " fill="#124178" transform="translate(237,56)"/>
<path d="M0 0 C0.33 0 0.66 0 1 0 C1.08226668 3.04386724 0.97608217 5.07175348 0 8 C0.66 8.33 1.32 8.66 2 9 C1.34 10.98 0.68 12.96 0 15 C-0.66 15 -1.32 15 -2 15 C-2.33 14.34 -2.66 13.68 -3 13 C-3.598125 13.495 -4.19625 13.99 -4.8125 14.5 C-9.38563933 16.65206557 -14.01747135 16.78671505 -19 16 C-20.8359375 14.4765625 -20.8359375 14.4765625 -22 13 C-21.07316406 13.01160156 -20.14632812 13.02320312 -19.19140625 13.03515625 C-17.39509766 13.04869141 -17.39509766 13.04869141 -15.5625 13.0625 C-13.77005859 13.07990234 -13.77005859 13.07990234 -11.94140625 13.09765625 C-9.11126659 13.33901792 -9.11126659 13.33901792 -8 12 C-8.28674418 9.99279077 -8.61866701 7.9914056 -9 6 C-8.071875 5.938125 -7.14375 5.87625 -6.1875 5.8125 C-2.80967689 5.31837701 -2.80967689 5.31837701 -1.1875 2.4375 C-0.795625 1.633125 -0.40375 0.82875 0 0 Z " fill="#094585" transform="translate(257,80)"/>
<path d="M0 0 C5.94 0 11.88 0 18 0 C17.67 0.99 17.34 1.98 17 3 C12.05 3 7.1 3 2 3 C2.33 3.66 2.66 4.32 3 5 C2.360625 5.78375 1.72125 6.5675 1.0625 7.375 C-1.93991648 11.19625733 -2.01230511 12.6239292 -1.6875 17.375 C-1.59991711 22.51544213 -1.59991711 22.51544213 -3.33203125 24.61328125 C-5 25.6875 -5 25.6875 -8 27 C-7.7834375 26.443125 -7.566875 25.88625 -7.34375 25.3125 C-5.38647405 19.94811407 -4.68901039 15.70147617 -5 10 C-6.98 10.33 -8.96 10.66 -11 11 C-10.67 10.01 -10.34 9.02 -10 8 C-8.906875 7.979375 -7.81375 7.95875 -6.6875 7.9375 C-5.470625 7.628125 -4.25375 7.31875 -3 7 C-2.01 4.69 -1.02 2.38 0 0 Z " fill="#083F79" transform="translate(184,56)"/>
<path d="M0 0 C39.11234568 -3.12962963 39.11234568 -3.12962963 48.796875 4.0078125 C53.22399331 8.15495495 56.89325578 12.79285664 60 18 C59.34 19.65 58.68 21.3 58 23 C57.731875 22.443125 57.46375 21.88625 57.1875 21.3125 C54.79507425 16.65356565 52.27401098 13.03579065 48.5 9.375 C47.7265625 8.61960937 46.953125 7.86421875 46.15625 7.0859375 C45.08890625 6.05339844 45.08890625 6.05339844 44 5 C43.63350342 4.47253174 43.26700684 3.94506348 42.8894043 3.40161133 C39.81151343 1.11834844 36.30610437 1.51800598 32.61328125 1.48828125 C31.79627243 1.47033005 30.97926361 1.45237885 30.13749695 1.43388367 C27.52921706 1.37972212 24.92112075 1.34586692 22.3125 1.3125 C20.54359421 1.27933201 18.77471267 1.24484283 17.00585938 1.20898438 C12.67070527 1.12399254 8.33560616 1.05720965 4 1 C4.33 3.64 4.66 6.28 5 9 C4.34 8.01 3.68 7.02 3 6 C2.195625 4.9790625 2.195625 4.9790625 1.375 3.9375 C0 2 0 2 0 0 Z " fill="#1A4574" transform="translate(277,55)"/>
<path d="M0 0 C-0.66 2.97 -1.32 5.94 -2 9 C0.475 9.495 0.475 9.495 3 10 C2.67 12.31 2.34 14.62 2 17 C-0.31 17 -2.62 17 -5 17 C-5 16.67 -5 16.34 -5 16 C-3.02 16 -1.04 16 1 16 C-1.0072908 12.9890638 -1.83884224 12.36983503 -5 11 C-5 8.69 -5 6.38 -5 4 C-7.64 3.34 -10.28 2.68 -13 2 C-13.33 2.99 -13.66 3.98 -14 5 C-15.32 4.67 -16.64 4.34 -18 4 C-18 3.34 -18 2.68 -18 2 C-15.75256955 1.46818825 -13.50192898 0.94992874 -11.25 0.4375 C-9.99703125 0.14746094 -8.7440625 -0.14257812 -7.453125 -0.44140625 C-4 -1 -4 -1 0 0 Z " fill="#0F4077" transform="translate(107,46)"/>
<path d="M0 0 C0.66 0.33 1.32 0.66 2 1 C0.68 6.94 -0.64 12.88 -2 19 C-1.01 19.33 -0.02 19.66 1 20 C0.34 20.33 -0.32 20.66 -1 21 C-1 21.99 -1 22.98 -1 24 C3.29 24 7.58 24 12 24 C12.28875 22.246875 12.5775 20.49375 12.875 18.6875 C13.47995441 15.01456251 13.90284215 13.14573677 16 10 C15.430756 15.40781799 14.53371845 19.63198544 13 25 C7.06 25 1.12 25 -5 25 C-3.875 16 -3.875 16 -3.02734375 12.5 C-2.85009766 11.75878906 -2.67285156 11.01757812 -2.49023438 10.25390625 C-2.21663086 9.13822266 -2.21663086 9.13822266 -1.9375 8 C-1.75123047 7.22527344 -1.56496094 6.45054688 -1.37304688 5.65234375 C-0.91923822 3.76729241 -0.46017508 1.8835073 0 0 Z " fill="#104178" transform="translate(59,70)"/>
<path d="M0 0 C0 0.33 0 0.66 0 1 C-1.65 1 -3.3 1 -5 1 C-5 1.99 -5 2.98 -5 4 C-3.68 4.33 -2.36 4.66 -1 5 C-1.33 6.98 -1.66 8.96 -2 11 C-4.64 10.67 -7.28 10.34 -10 10 C-9.814375 9.38125 -9.62875 8.7625 -9.4375 8.125 C-8.76313824 5.95839822 -8.76313824 5.95839822 -10 4 C-10 3.67 -10 3.34 -10 3 C-10.99 3.495 -10.99 3.495 -12 4 C-14 4 -16 4 -18 4 C-18.99 4.495 -18.99 4.495 -20 5 C-19.67 4.01 -19.34 3.02 -19 2 C-12.83748371 -0.60195132 -6.59326599 -0.19487486 0 0 Z " fill="#024185" transform="translate(140,55)"/>
<path d="M0 0 C0.99 0.33 1.98 0.66 3 1 C0.07190921 5.84261168 -3.28197398 10.80776885 -8.94604492 12.62402344 C-12.38071568 13.25274006 -15.83253668 13.22593802 -19.3125 13.25 C-20.41368164 13.2809375 -20.41368164 13.2809375 -21.53710938 13.3125 C-26.77133722 13.34965512 -30.35458665 12.44650576 -35 10 C-36.9375 7.8125 -36.9375 7.8125 -38 6 C-37.01 6 -36.02 6 -35 6 C-34.01 7.485 -34.01 7.485 -33 9 C-28.46200946 11.00205465 -24.42364149 11.2700148 -19.5 11.25 C-18.2315625 11.25515625 -16.963125 11.2603125 -15.65625 11.265625 C-12.06466286 11.00469773 -9.30384224 10.41168672 -6 9 C-4.79117904 6.99983534 -4.79117904 6.99983534 -4 5 C-3.01 4.67 -2.02 4.34 -1 4 C-0.26676204 1.98491642 -0.26676204 1.98491642 0 0 Z " fill="#114373" transform="translate(189,97)"/>
<path d="M0 0 C0.33 0.99 0.66 1.98 1 3 C4.02419525 2.41196203 7.01758453 1.77321882 10 1 C9.67 1.99 9.34 2.98 9 4 C12.63 4 16.26 4 20 4 C17.34852936 6.65147064 15.33096112 6.28937297 11.71875 6.32226562 C10.9040625 6.31904297 10.089375 6.31582031 9.25 6.3125 C8.05117187 6.33666992 8.05117187 6.33666992 6.828125 6.36132812 C1.81781461 6.36544845 -1.67125663 5.79734831 -6 3 C-6.33 2.34 -6.66 1.68 -7 1 C-2.25 0 -2.25 0 0 0 Z " fill="#0C4078" transform="translate(120,90)"/>
<path d="M0 0 C0.33 0.99 0.66 1.98 1 3 C0.34 3 -0.32 3 -1 3 C-1.226875 3.9075 -1.45375 4.815 -1.6875 5.75 C-3.19189738 9.47517446 -4.66834773 10.83442602 -8 13 C-8.66 13 -9.32 13 -10 13 C-10.66 16.3 -11.32 19.6 -12 23 C-12.66 23 -13.32 23 -14 23 C-14.33 24.65 -14.66 26.3 -15 28 C-15.66 28 -16.32 28 -17 28 C-16.36515933 25.98967123 -15.6872487 23.99302124 -15 22 C-14.78988281 21.27296875 -14.57976562 20.5459375 -14.36328125 19.796875 C-11.61321293 11.47959521 -6.05465458 6.0755327 0 0 Z " fill="#D8562C" transform="translate(339,77)"/>
<path d="M0 0 C0 3 0 3 -2 6 C-2.66 6 -3.32 6 -4 6 C-3.938125 7.0209375 -3.938125 7.0209375 -3.875 8.0625 C-4 11 -4 11 -5.0625 14.375 C-6.1084887 18.41948964 -5.81307525 20.93462377 -5 25 C-4.814375 26.134375 -4.62875 27.26875 -4.4375 28.4375 C-4.293125 29.283125 -4.14875 30.12875 -4 31 C-7.15380946 28.41961044 -8.13718893 25.95455076 -9 22 C-9.1339302 14.00436685 -7.11989709 7.46655232 -1.75 1.5 C-1.1725 1.005 -0.595 0.51 0 0 Z " fill="#124178" transform="translate(117,60)"/>
<path d="M0 0 C1.55296823 2.32945234 2.75775988 4.51551976 4 7 C4.99 8.485 4.99 8.485 6 10 C2.0186217 11.3271261 -1.85045227 11.06915913 -6 11 C-6 10.01 -6 9.02 -6 8 C-4.68 7.34 -3.36 6.68 -2 6 C-2 4.35 -2 2.7 -2 1 C-1.34 0.67 -0.68 0.34 0 0 Z " fill="#01418C" transform="translate(246,83)"/>
<path d="M0 0 C0.66 0 1.32 0 2 0 C1.8125 2 1.8125 2 1 5 C0.81953125 5.69738281 0.6390625 6.39476562 0.453125 7.11328125 C-0.7025639 9.96702182 -1.45396247 11.20202504 -4 13 C-9.91256098 14.0557113 -16.0491253 13.44492521 -22 13 C-21.67 11.35 -21.34 9.7 -21 8 C-20.01 9.485 -20.01 9.485 -19 11 C-16.37302936 11.22137393 -13.99106036 11.28162025 -11.375 11.1875 C-10.66859375 11.17396484 -9.9621875 11.16042969 -9.234375 11.14648438 C-7.48925872 11.1111104 -5.74453392 11.05730221 -4 11 C-3.80083984 10.12601563 -3.80083984 10.12601563 -3.59765625 9.234375 C-2.72992502 5.99030791 -1.35773314 3.06965753 0 0 Z " fill="#D3582F" transform="translate(230,40)"/>
<path d="M0 0 C1.0428233 3.38917573 1 6.47403153 1 10 C1.33 10.66 1.66 11.32 2 12 C1.3125 15.0625 1.3125 15.0625 0 18 C-2.08203125 18.68359375 -2.08203125 18.68359375 -4 19 C-3.00318287 12.54189755 -1.98363508 6.23428168 0 0 Z " fill="#0A3E77" transform="translate(35,68)"/>
<path d="M0 0 C0.66 0.33 1.32 0.66 2 1 C2.44921875 2.99609375 2.44921875 2.99609375 2.6875 5.4375 C2.77386719 6.24058594 2.86023438 7.04367188 2.94921875 7.87109375 C3 10 3 10 2 12 C0.07421875 12.30859375 0.07421875 12.30859375 -2.3125 12.4375 C-6.05233514 12.75907818 -8.2560589 13.2560589 -11 16 C-9.6015209 12.5912072 -8.14993067 11.12606165 -5 9.25 C-4.29875 8.82203125 -3.5975 8.3940625 -2.875 7.953125 C-1 7 -1 7 1 7 C0.67 4.69 0.34 2.38 0 0 Z " fill="#0B3D70" transform="translate(232,60)"/>
<path d="M0 0 C0.66 0 1.32 0 2 0 C2.33 1.98 2.66 3.96 3 6 C5.97 6.495 5.97 6.495 9 7 C8.34 10.63 7.68 14.26 7 18 C6.67 18 6.34 18 6 18 C5.938125 16.9275 5.87625 15.855 5.8125 14.75 C5.3894085 10.86398563 5.3894085 10.86398563 2.4375 9 C1.633125 8.34 0.82875 7.68 0 7 C-0.3125 3.25 -0.3125 3.25 0 0 Z " fill="#134071" transform="translate(97,76)"/>
<path d="M0 0 C2.1796875 0.26953125 2.1796875 0.26953125 4.875 0.8125 C5.75929687 0.98394531 6.64359375 1.15539062 7.5546875 1.33203125 C10 2 10 2 13 4 C10.69 4.33 8.38 4.66 6 5 C6 5.99 6 6.98 6 8 C6.99 8.33 7.98 8.66 9 9 C8.01 9.495 8.01 9.495 7 10 C4.0702992 7.17493137 1.49825283 4.21203935 -1 1 C-0.67 0.67 -0.34 0.34 0 0 Z " fill="#E9541F" transform="translate(232,126)"/>
<path d="M0 0 C5.94 0 11.88 0 18 0 C17.67 0.99 17.34 1.98 17 3 C12.05 2.67 7.1 2.34 2 2 C1.34 3.65 0.68 5.3 0 7 C-0.93423645 3.98968256 -1.04449911 3.13349732 0 0 Z " fill="#154479" transform="translate(15,56)"/>
<path d="M0 0 C-2.53362869 2.53362869 -4.55151349 3.07156132 -8 4 C-8.969375 3.979375 -9.93875 3.95875 -10.9375 3.9375 C-14.18893888 3.8113438 -14.18893888 3.8113438 -17.625 5.5625 C-21.11692057 7.0497995 -21.64449529 7.10629086 -25 6 C-22.93950145 5.18243762 -20.87651147 4.37115266 -18.8125 3.5625 C-17.66394531 3.11003906 -16.51539063 2.65757812 -15.33203125 2.19140625 C-10.0464997 0.30150341 -5.61147209 -0.11002886 0 0 Z " fill="#DC5828" transform="translate(269,5)"/>
<path d="M0 0 C5.94 0 11.88 0 18 0 C17.67 0.99 17.34 1.98 17 3 C12.05 3 7.1 3 2 3 C1.67 3.66 1.34 4.32 1 5 C0.34 5 -0.32 5 -1 5 C-0.67 3.35 -0.34 1.7 0 0 Z " fill="#184378" transform="translate(184,56)"/>
<path d="M0 0 C0.33 0 0.66 0 1 0 C0.67 3.3 0.34 6.6 0 10 C6.435 9.505 6.435 9.505 13 9 C13.33 8.01 13.66 7.02 14 6 C14.99 5.67 15.98 5.34 17 5 C16.67 6.98 16.34 8.96 16 11 C10.06 11 4.12 11 -2 11 C-1.34 7.37 -0.68 3.74 0 0 Z " fill="#12416E" transform="translate(18,42)"/>
<path d="M0 0 C3.45195767 1.4258086 5.1014256 3.09746334 7.25 6.125 C8.03117188 7.21167969 8.03117188 7.21167969 8.828125 8.3203125 C9.40820312 9.15175781 9.40820312 9.15175781 10 10 C9.01 10.495 9.01 10.495 8 11 C7.67 11.66 7.34 12.32 7 13 C5.82479354 11.40207898 4.66008753 9.79643092 3.5 8.1875 C2.8503125 7.29417969 2.200625 6.40085937 1.53125 5.48046875 C0 3 0 3 0 0 Z " fill="#D05934" transform="translate(213,107)"/>
<path d="M0 0 C0.66 0 1.32 0 2 0 C1.814375 0.5775 1.62875 1.155 1.4375 1.75 C0.7761831 4.30393357 0.7761831 4.30393357 2 8 C5.63 8 9.26 8 13 8 C13 8.33 13 8.66 13 9 C7.72 9 2.44 9 -3 9 C-2 3 -2 3 0 0 Z " fill="#08446A" transform="translate(240,60)"/>
<path d="M0 0 C4.73494596 3.66958312 4.73494596 3.66958312 5.40234375 7.01953125 C5.4888767 12.50956642 4.39967709 17.71371957 3 23 C2.67 23 2.34 23 2 23 C1.92518945 18.81060947 1.96407461 14.94074273 2.6875 10.8125 C3.03416706 6.58316186 2.44861851 5.33012118 0 2 C0 1.34 0 0.68 0 0 Z " fill="#143F75" transform="translate(73,57)"/>
<path d="M0 0 C-1.65 0.33 -3.3 0.66 -5 1 C-5 0.34 -5 -0.32 -5 -1 C-5.99 -0.34 -6.98 0.32 -8 1 C-9.32 1 -10.64 1 -12 1 C-12 0.34 -12 -0.32 -12 -1 C-13.85625 -0.4740625 -13.85625 -0.4740625 -15.75 0.0625 C-18.903292 0.95593273 -20.86774164 1.00881294 -24 0 C-16.90358607 -2.70339578 -6.49449564 -4.32966376 0 0 Z " fill="#0E3E6A" transform="translate(269,57)"/>
<path d="M0 0 C-4.23899255 3.50813177 -8.22904824 3.35530725 -13.4765625 3.3984375 C-16.35088119 2.94459771 -17.22864392 2.24688791 -19 0 C-18.10796875 0.01160156 -17.2159375 0.02320312 -16.296875 0.03515625 C-14.54117188 0.04869141 -14.54117188 0.04869141 -12.75 0.0625 C-11.00976562 0.07990234 -11.00976562 0.07990234 -9.234375 0.09765625 C-0.34168565 -0.17084282 -0.34168565 -0.17084282 0 0 Z " fill="#144375" transform="translate(254,93)"/>
<path d="M0 0 C5.28 0 10.56 0 16 0 C14.875 6.75 14.875 6.75 12 9 C10.875 4.25 10.875 4.25 12 2 C8.04 1.67 4.08 1.34 0 1 C0 0.67 0 0.34 0 0 Z " fill="#1A4677" transform="translate(134,81)"/>
<path d="M0 0 C0.33 0.66 0.66 1.32 1 2 C2.65 2 4.3 2 6 2 C5.40546697 16.78132118 5.40546697 16.78132118 2 23 C0.62655615 18.60155678 1.75692498 15.07495445 2.9375 10.75 C3.13279297 10.00492188 3.32808594 9.25984375 3.52929688 8.4921875 C4.01104198 6.65920614 4.50439225 4.82928182 5 3 C3.35 3 1.7 3 0 3 C0 2.01 0 1.02 0 0 Z " fill="#134070" transform="translate(80,60)"/>
<path d="M0 0 C2.97 0.33 5.94 0.66 9 1 C9 1.66 9 2.32 9 3 C9.763125 2.773125 10.52625 2.54625 11.3125 2.3125 C14 2 14 2 15.8125 3.25 C17 5 17 5 17 8 C13.21283842 6.49637741 9.44754813 4.94512999 5.6875 3.375 C4.08455078 2.70597656 4.08455078 2.70597656 2.44921875 2.0234375 C1.23685547 1.51683594 1.23685547 1.51683594 0 1 C0 0.67 0 0.34 0 0 Z " fill="#E15626" transform="translate(289,23)"/>
<path d="M0 0 C3.40483787 1.13494596 4.48695745 2.63459716 6.671875 5.37890625 C8.61758842 7.75382116 10.80220645 9.86004312 13 12 C14 13 15 14 16 15 C15.67 15.66 15.34 16.32 15 17 C12.49195282 14.54976242 9.9949924 12.08852402 7.5 9.625 C6.78457031 8.92632812 6.06914062 8.22765625 5.33203125 7.5078125 C4.65527344 6.8375 3.97851562 6.1671875 3.28125 5.4765625 C2.65283203 4.85861816 2.02441406 4.24067383 1.37695312 3.60400391 C0 2 0 2 0 0 Z " fill="#C65B34" transform="translate(326,57)"/>
<path d="M0 0 C1.2077558 3.62326739 0.54311128 4.64146369 -1 8 C-1.391875 7.34 -1.78375 6.68 -2.1875 6 C-3.85416667 3.70833333 -3.85416667 3.70833333 -6.6875 3.75 C-7.450625 3.8325 -8.21375 3.915 -9 4 C-9.33 4.66 -9.66 5.32 -10 6 C-10.33 4.68 -10.66 3.36 -11 2 C-7.53188567 0.84396189 -4.63431887 1 -1 1 C-0.67 0.67 -0.34 0.34 0 0 Z " fill="#0A4079" transform="translate(263,61)"/>
<path d="M0 0 C4.18423892 3.50897269 8.19588166 7.08060535 12 11 C11.34 12.65 10.68 14.3 10 16 C9.731875 15.443125 9.46375 14.88625 9.1875 14.3125 C7.21368921 10.46876319 5.39495924 7.39495924 2.3125 4.3125 C1.549375 3.549375 0.78625 2.78625 0 2 C0 1.34 0 0.68 0 0 Z " fill="#2D4F77" transform="translate(325,62)"/>
<path d="M0 0 C0.66 0.33 1.32 0.66 2 1 C1.67 2.98 1.34 4.96 1 7 C-1.31 7.33 -3.62 7.66 -6 8 C-4.55746343 4.63408134 -2.66735273 2.48952921 0 0 Z " fill="#E25520" transform="translate(227,22)"/>
<path d="M0 0 C0.33 0 0.66 0 1 0 C1.24213848 2.90566174 1.16185671 4.66729453 -0.125 7.3125 C-2 9 -2 9 -5.1875 9.25 C-6.115625 9.1675 -7.04375 9.085 -8 9 C-8.33 8.01 -8.66 7.02 -9 6 C-8.071875 5.938125 -7.14375 5.87625 -6.1875 5.8125 C-2.80967689 5.31837701 -2.80967689 5.31837701 -1.1875 2.4375 C-0.795625 1.633125 -0.40375 0.82875 0 0 Z " fill="#0F4178" transform="translate(257,80)"/>
<path d="M0 0 C1.65 0 3.3 0 5 0 C4.34 4.62 3.68 9.24 3 14 C3.66 14.33 4.32 14.66 5 15 C4.01 15 3.02 15 2 15 C1.97301811 13.37509046 1.95361243 11.75005367 1.9375 10.125 C1.92589844 9.22007813 1.91429687 8.31515625 1.90234375 7.3828125 C2 5 2 5 3 3 C1.68 3.33 0.36 3.66 -1 4 C-0.67 2.68 -0.34 1.36 0 0 Z " fill="#0C4078" transform="translate(168,68)"/>
<path d="M0 0 C2.31 0 4.62 0 7 0 C7.12375 0.639375 7.2475 1.27875 7.375 1.9375 C7.684375 2.9584375 7.684375 2.9584375 8 4 C8.66 4.33 9.32 4.66 10 5 C4.5388601 4.64766839 4.5388601 4.64766839 2 4 C0.5 1.9375 0.5 1.9375 0 0 Z " fill="#E7551E" transform="translate(253,139)"/>
<path d="M0 0 C0.33 0.66 0.66 1.32 1 2 C3.02463255 2.65213292 3.02463255 2.65213292 5 3 C4.67 3.99 4.34 4.98 4 6 C3.34 6 2.68 6 2 6 C2 6.66 2 7.32 2 8 C1.34 7.67 0.68 7.34 0 7 C-0.66 7 -1.32 7 -2 7 C-2.66 7 -3.32 7 -4 7 C-2.79618552 4.50638429 -1.54571278 2.31856917 0 0 Z " fill="#E8551E" transform="translate(321,105)"/>
<path d="M0 0 C0 0.33 0 0.66 0 1 C-0.69867188 1.04898438 -1.39734375 1.09796875 -2.1171875 1.1484375 C-3.02726562 1.22320312 -3.93734375 1.29796875 -4.875 1.375 C-5.77992188 1.44460937 -6.68484375 1.51421875 -7.6171875 1.5859375 C-10.17941903 1.79568132 -10.17941903 1.79568132 -12 4 C-13.99956611 4.04165763 -16.00043389 4.04165763 -18 4 C-18.99 4.495 -18.99 4.495 -20 5 C-19.67 4.01 -19.34 3.02 -19 2 C-12.83748371 -0.60195132 -6.59326599 -0.19487486 0 0 Z " fill="#123D6D" transform="translate(140,55)"/>
<path d="M0 0 C-1 2 -2 4 -3 6 C-4.65 6 -6.3 6 -8 6 C-8 6.66 -8 7.32 -8 8 C-8.66 8 -9.32 8 -10 8 C-8.48502075 3.75805811 -4.70198172 0 0 0 Z " fill="#E1551E" transform="translate(240,14)"/>
<path d="M0 0 C0.66 0 1.32 0 2 0 C1.88490339 1.41750563 1.75746342 2.83401169 1.625 4.25 C1.55539063 5.03890625 1.48578125 5.8278125 1.4140625 6.640625 C0.98492887 9.085877 0.21399362 10.84836903 -1 13 C-2.0070238 7.96488101 -1.97387813 4.76052962 0 0 Z " fill="#0E3B73" transform="translate(195,75)"/>
<path d="M0 0 C0.33 0 0.66 0 1 0 C1.33 3.96 1.66 7.92 2 12 C0.02 13.32 -1.96 14.64 -4 16 C-3.79503906 15.43152344 -3.59007812 14.86304687 -3.37890625 14.27734375 C-1.70907331 9.4915546 -0.53623064 5.04056799 0 0 Z " fill="#0E3C71" transform="translate(180,67)"/>
<path d="M0 0 C0.33 0 0.66 0 1 0 C0.51171875 6.0546875 0.51171875 6.0546875 0 8 C-0.99 8.66 -1.98 9.32 -3 10 C-3 9.34 -3 8.68 -3 8 C-3.99 8 -4.98 8 -6 8 C-6.33 8.66 -6.66 9.32 -7 10 C-7 8.68 -7 7.36 -7 6 C-5.02 6 -3.04 6 -1 6 C-0.67 4.02 -0.34 2.04 0 0 Z " fill="#164176" transform="translate(88,50)"/>
<path d="M0 0 C0.66 0.33 1.32 0.66 2 1 C0.74194623 5.50802601 -0.90407165 8.4912812 -4 12 C-4.33 10.68 -4.66 9.36 -5 8 C-4.01 8 -3.02 8 -2 8 C-2 6.35 -2 4.7 -2 3 C-1.34 3 -0.68 3 0 3 C0 2.01 0 1.02 0 0 Z " fill="#E15622" transform="translate(339,101)"/>
<path d="M0 0 C0.99 0 1.98 0 3 0 C2.48041715 4.37934119 1.94324258 8.68803391 1 13 C0.67 13 0.34 13 0 13 C-0.0270043 11.54176788 -0.04639787 10.08339325 -0.0625 8.625 C-0.07410156 7.81289062 -0.08570312 7.00078125 -0.09765625 6.1640625 C0 4 0 4 1 2 C0.34 1.67 -0.32 1.34 -1 1 C-0.67 0.67 -0.34 0.34 0 0 Z " fill="#0B3F71" transform="translate(29,59)"/>
<path d="M0 0 C5.35048061 0.37328935 7.50912907 1.9957657 11 6 C10.67 6.66 10.34 7.32 10 8 C9.0925 7.21625 8.185 6.4325 7.25 5.625 C4.94809764 3.69947504 2.78422793 2.17794259 0 1 C0 0.67 0 0.34 0 0 Z " fill="#144474" transform="translate(140,56)"/>
<path d="M0 0 C7.26153846 -0.61538462 7.26153846 -0.61538462 11 2.5 C11.66 3.325 12.32 4.15 13 5 C10.03 4.505 10.03 4.505 7 4 C7 3.01 7 2.02 7 1 C4.69 1 2.38 1 0 1 C0 0.67 0 0.34 0 0 Z " fill="#13406F" transform="translate(169,55)"/>
<path d="M0 0 C0.99 0 1.98 0 3 0 C1.63629701 2.99220268 0.05091917 5.29026529 -2.125 7.75 C-2.93324219 8.67039062 -2.93324219 8.67039062 -3.7578125 9.609375 C-4.16773438 10.06828125 -4.57765625 10.5271875 -5 11 C-5 7.06764531 -3.45054659 5.97035951 -1 3 C-0.67 2.01 -0.34 1.02 0 0 Z " fill="#D95328" transform="translate(332,113)"/>
<path d="M0 0 C0.33 1.65 0.66 3.3 1 5 C-1.64 4.67 -4.28 4.34 -7 4 C-6.67 3.01 -6.34 2.02 -6 1 C-3.90006779 0.25486277 -2.22568901 0 0 0 Z " fill="#0B417A" transform="translate(137,61)"/>
<path d="M0 0 C2.475 0.495 2.475 0.495 5 1 C5 1.99 5 2.98 5 4 C5.66 4.33 6.32 4.66 7 5 C4.03 4.505 4.03 4.505 1 4 C0.67 2.68 0.34 1.36 0 0 Z " fill="#EA511C" transform="translate(224,120)"/>
<path d="M0 0 C0.66 0 1.32 0 2 0 C1.67 1.98 1.34 3.96 1 6 C-0.98 6 -2.96 6 -5 6 C-4.01 5.34 -3.02 4.68 -2 4 C-1.67 3.01 -1.34 2.02 -1 1 C-0.67 0.67 -0.34 0.34 0 0 Z " fill="#10457B" transform="translate(33,47)"/>
<path d="M0 0 C-2.51471866 2.51471866 -4.56816682 3.15955106 -8 4 C-8.99 3.34 -9.98 2.68 -11 2 C-7.36576791 -0.32590854 -4.22911669 -0.16265833 0 0 Z " fill="#E65620" transform="translate(269,5)"/>
<path d="M0 0 C3.63 0.66 7.26 1.32 11 2 C7 4 7 4 4 4 C1.8125 2 1.8125 2 0 0 Z " fill="#D95B2D" transform="translate(245,130)"/>
<path d="M0 0 C1.45606519 4.52092968 0.27032841 7.51648796 -1 12 C-1.33 12 -1.66 12 -2 12 C-1.979375 11.21625 -1.95875 10.4325 -1.9375 9.625 C-1.81315937 7.01885039 -1.81315937 7.01885039 -3 5 C-1.5625 2.375 -1.5625 2.375 0 0 Z " fill="#0F3A67" transform="translate(218,80)"/>
<path d="M0 0 C0.6875 1.8125 0.6875 1.8125 1 4 C-0.4375 5.75 -0.4375 5.75 -2 7 C-2.99 6.67 -3.98 6.34 -5 6 C-3.35 4.02 -1.7 2.04 0 0 Z " fill="#D85825" transform="translate(220,30)"/>
<path d="M0 0 C0.33 0.66 0.66 1.32 1 2 C2.65 1.67 4.3 1.34 6 1 C3.31158141 3.25245881 1.35358125 4.88213958 -2 6 C-2 4.35 -2 2.7 -2 1 C-1.34 0.67 -0.68 0.34 0 0 Z " fill="#DB5124" transform="translate(245,26)"/>
<path d="M0 0 C0.66 0 1.32 0 2 0 C1.74438677 2.3431213 1.40729228 4.67843403 1 7 C0.01 7.495 0.01 7.495 -1 8 C-1.625 5.6875 -1.625 5.6875 -2 3 C-1.34 2.01 -0.68 1.02 0 0 Z " fill="#0C3F79" transform="translate(147,82)"/>
<path d="M0 0 C0.66 0 1.32 0 2 0 C1.67 1.98 1.34 3.96 1 6 C-0.32 6 -1.64 6 -3 6 C-1.125 1.125 -1.125 1.125 0 0 Z " fill="#E34F19" transform="translate(215,37)"/>
<path d="M0 0 C2.50037734 2.17424117 3.43628586 3.73045798 4 7 C2.68 7 1.36 7 0 7 C0 4.69 0 2.38 0 0 Z " fill="#E25623" transform="translate(335,37)"/>
<path d="M0 0 C0.66 0.33 1.32 0.66 2 1 C0.35 2.98 -1.3 4.96 -3 7 C-3.99 6.34 -4.98 5.68 -6 5 C-4.02 3.35 -2.04 1.7 0 0 Z " fill="#DF542A" transform="translate(309,118)"/>
<path d="M0 0 C2.475 0.495 2.475 0.495 5 1 C5 3.97 5 6.94 5 10 C4.67 10 4.34 10 4 10 C3.896875 8.906875 3.79375 7.81375 3.6875 6.6875 C3.02692273 3.14440371 2.7972908 2.06756277 0 0 Z " fill="#0A3D76" transform="translate(99,84)"/>
<path d="M0 0 C1.5625 1.8125 1.5625 1.8125 3 4 C2.67 4.99 2.34 5.98 2 7 C1.34 6.67 0.68 6.34 0 6 C-0.33 6.66 -0.66 7.32 -1 8 C-1.93065133 5.39417629 -2.14917407 4.35801776 -1.0625 1.75 C-0.711875 1.1725 -0.36125 0.595 0 0 Z " fill="#E94D1D" transform="translate(211,43)"/>
<path d="M0 0 C0.66 0.33 1.32 0.66 2 1 C-1.465 3.97 -1.465 3.97 -5 7 C-5 6.01 -5 5.02 -5 4 C-4.34 4 -3.68 4 -3 4 C-3 3.01 -3 2.02 -3 1 C-2.01 0.67 -1.02 0.34 0 0 Z " fill="#D85A2A" transform="translate(238,34)"/>
<path d="" fill="#FF0000" transform="translate(0,0)"/>
</svg>
